# xmcd
#
# Track frame offsets:
# 150
# 20156
# 37711
# 53231
# 65533
# 90943
# 118380
# 142902
# 171970
# 184262
# 206909
# 229558
# 248546
# 262494
#
# Disc length: 3763 seconds
#
#
# Revision: 3
# Processed by: cddbd v1.5.2PL0 Copyright (c) Steve Scherf et al.
# Submitted via: FreeRIP 2.951 
#
DISCID=c70eb10e
DTITLE=ludmila ferber - adoração profética I
DYEAR=2004
DGENRE=Gospel
TTITLE0=quando os adoradores se encontram
TTITLE1=o exército de deus
TTITLE2=nosso escudo
TTITLE3=eu e minha casa
TTITLE4=palácio para deus
TTITLE5=recebe a cura
TTITLE6=ouça e tome posse
TTITLE7=faz chover
TTITLE8=o perdão
TTITLE9=deus está nos chamando
TTITLE10=eu dependo de deus
TTITLE11=tuas fontes
TTITLE12=tua presença
TTITLE13=jardim secreto
EXTD=YEAR: 2004
EXTT0=
EXTT1=
EXTT2=
EXTT3=
EXTT4=
EXTT5=
EXTT6=
EXTT7=
EXTT8=
EXTT9=
EXTT10=
EXTT11=
EXTT12=
EXTT13=
PLAYORDER=
